<svg viewBox="0 0 1440 1440" fill="none" xmlns="http://www.w3.org/2000/svg" preserveAspectRatio="xMidYMid meet">
<rect width="1440" height="1440" fill="#0D47A1"/>
<g clip-path="url(#clip0_6_2)">
<mask id="mask0_6_2" style="mask-type:luminance" maskUnits="userSpaceOnUse" x="0" y="0" width="1440" height="1440">
<path d="M0 0H1440V1440H0V0Z" fill="white"/>
</mask>
<g mask="url(#mask0_6_2)">
<path d="M401.414 811.977C388.635 804.666 378.643 794.669 371.434 781.998C364.219 769.328 360.616 755.164 360.616 739.502V676.453C360.616 660.589 364.219 646.32 371.434 633.648C378.643 620.976 388.635 610.985 401.414 603.669C414.187 596.357 428.506 592.697 444.374 592.697H464.154C481.046 592.697 495.832 596.458 508.504 603.978C521.175 611.501 530.959 621.749 537.864 634.729C544.766 647.71 548.219 662.134 548.219 677.998H503.712C503.712 665.018 500.004 654.77 492.587 647.246C485.17 639.728 474.971 635.966 461.99 635.966H447.154C433.967 635.966 423.714 639.674 416.404 647.092C409.087 654.509 405.431 664.916 405.431 678.308V737.648C405.431 750.836 409.087 761.136 416.404 768.554C423.714 775.97 433.967 779.68 447.154 779.68H461.99C475.174 779.68 485.426 775.97 492.742 768.554C500.054 761.136 503.712 750.734 503.712 737.338H548.219C548.219 753.206 544.766 767.68 537.864 780.762C530.959 793.849 521.175 804.15 508.504 811.669C495.832 819.186 481.046 822.949 464.154 822.949H444.374C428.506 822.949 414.187 819.289 401.414 811.977Z" fill="#FFFFFF"/>
<path d="M839.385 597.333H883.579L965.791 718.485L984.645 753.719L982.479 691.287V597.333H1026.68V818.313H982.479L900.889 697.469L881.417 661.927L883.579 724.049V818.313H839.385V597.333Z" fill="#FFFFFF"/>
<path d="M1082.21 665.552C1080.33 664.478 1078.85 662.997 1077.77 661.11C1076.7 659.224 1076.16 657.108 1076.16 654.765V643.733C1076.16 641.389 1076.7 639.274 1077.77 637.388C1078.85 635.5 1080.33 634.02 1082.21 632.945C1084.1 631.872 1086.22 631.334 1088.56 631.334H1091.88C1094.39 631.334 1096.57 631.896 1098.45 633.018C1100.32 634.141 1101.75 635.63 1102.74 637.485C1103.73 639.34 1104.23 641.341 1104.23 643.488H1100.03C1100 641.048 1099.22 639.104 1097.69 637.656C1096.16 636.208 1094.17 635.482 1091.73 635.482H1088.8C1086.27 635.482 1084.23 636.249 1082.7 637.777C1081.17 639.308 1080.41 641.325 1080.41 643.83V654.52C1080.41 657.058 1081.17 659.101 1082.7 660.646C1084.23 662.192 1086.27 662.965 1088.8 662.965H1091.73C1094.24 662.965 1096.25 662.217 1097.76 660.72C1099.27 659.224 1100.03 657.237 1100.03 654.765H1104.28C1104.28 657.076 1103.77 659.174 1102.74 661.061C1101.71 662.949 1100.26 664.438 1098.37 665.528C1096.48 666.617 1094.32 667.162 1091.88 667.162H1088.56C1086.22 667.162 1084.1 666.625 1082.21 665.552Z" fill="#FFFFFF"/>
<path d="M1126.44 652.421V651.201C1126.44 649.216 1125.88 647.654 1124.78 646.514C1123.67 645.376 1122.14 644.806 1120.19 644.806H1118.68C1116.72 644.806 1115.2 645.376 1114.09 646.514C1112.98 647.654 1112.43 649.216 1112.43 651.201V652.421H1126.44ZM1111.11 664.429C1109.29 662.608 1108.38 660.101 1108.38 656.912V651.348C1108.38 648.125 1109.29 645.612 1111.11 643.806C1112.93 642 1115.46 641.097 1118.68 641.097H1120.19C1123.41 641.097 1125.93 642 1127.73 643.806C1129.54 645.612 1130.44 648.125 1130.44 651.348V656.033H1112.43V656.961C1112.43 658.946 1112.98 660.5 1114.09 661.622C1115.2 662.745 1116.72 663.306 1118.68 663.306H1120.19C1121.69 663.306 1122.94 662.965 1123.95 662.282C1124.96 661.598 1125.66 660.688 1126.05 659.548H1130.25C1129.79 661.957 1128.68 663.828 1126.93 665.161C1125.17 666.496 1122.92 667.162 1120.19 667.162H1118.68C1115.46 667.162 1112.93 666.252 1111.11 664.429Z" fill="#FFFFFF"/>
<path d="M1137.62 643.757C1139.37 641.984 1141.83 641.097 1144.99 641.097H1146.5C1149.66 641.097 1152.12 641.984 1153.9 643.757C1155.67 645.532 1156.56 647.996 1156.56 651.152V666.528H1152.5V651.25C1152.5 649.33 1151.96 647.817 1150.87 646.71C1149.78 645.604 1148.27 645.05 1146.35 645.05H1145.13C1143.24 645.05 1141.76 645.604 1140.67 646.71C1139.58 647.817 1139.03 649.33 1139.03 651.25V666.528H1134.98V651.152C1134.98 647.996 1135.86 645.532 1137.62 643.757Z" fill="#FFFFFF"/>
<path d="M1165.63 635.435V641.683H1173.84V645.441H1165.63V656.716C1165.63 658.735 1166.23 660.24 1167.42 661.232C1168.6 662.224 1170.16 662.721 1172.08 662.721H1174.52V666.528H1171.49C1168.47 666.528 1166.06 665.707 1164.27 664.063C1162.48 662.42 1161.58 660.084 1161.58 657.059V635.435H1165.63Z" fill="#FFFFFF"/>
<path d="M1191.99 645.587H1188.43C1186.61 645.587 1185.11 646.198 1183.94 647.418C1182.77 648.638 1182.18 650.193 1182.18 652.079V666.529H1178.13V651.641C1178.13 648.549 1179.04 646.117 1180.86 644.342C1182.68 642.57 1185.18 641.683 1188.33 641.683H1191.99V645.587Z" fill="#FFFFFF"/>
<path d="M1199.27 661.5C1200.37 662.64 1201.9 663.209 1203.85 663.209H1205.32C1207.27 663.209 1208.8 662.64 1209.91 661.5C1211.01 660.361 1211.57 658.799 1211.57 656.815V651.396C1211.57 649.412 1211.01 647.849 1209.91 646.711C1208.8 645.571 1207.27 645.001 1205.32 645.001H1203.85C1201.9 645.001 1200.37 645.571 1199.27 646.711C1198.16 647.849 1197.61 649.412 1197.61 651.396V656.815C1197.61 658.799 1198.16 660.361 1199.27 661.5ZM1196.24 664.429C1194.42 662.608 1193.51 660.101 1193.51 656.912V651.347C1193.51 648.125 1194.42 645.612 1196.24 643.805C1198.06 642 1200.58 641.096 1203.81 641.096H1205.42C1208.64 641.096 1211.15 642.008 1212.96 643.831C1214.76 645.653 1215.67 648.159 1215.67 651.347V656.912C1215.67 660.101 1214.76 662.608 1212.96 664.429C1211.15 666.252 1208.64 667.163 1205.42 667.163H1203.81C1200.58 667.163 1198.06 666.252 1196.24 664.429Z" fill="#FFFFFF"/>
<path d="M1082.75 719.27C1084.31 720.815 1086.36 721.589 1088.9 721.589H1092.61C1095.15 721.589 1097.2 720.815 1098.76 719.27C1100.32 717.725 1101.11 715.682 1101.11 713.145V702.454C1101.11 699.915 1100.33 697.883 1098.79 696.353C1097.24 694.823 1095.18 694.058 1092.61 694.058H1088.9C1086.36 694.058 1084.31 694.823 1082.75 696.353C1081.19 697.883 1080.41 699.915 1080.41 702.454V713.145C1080.41 715.682 1081.19 717.725 1082.75 719.27ZM1082.21 724.127C1080.33 723.053 1078.85 721.573 1077.77 719.685C1076.7 717.798 1076.16 715.682 1076.16 713.339V702.307C1076.16 699.965 1076.7 697.85 1077.77 695.962C1078.85 694.075 1080.33 692.594 1082.21 691.519C1084.1 690.446 1086.22 689.909 1088.56 689.909H1092.95C1095.33 689.909 1097.46 690.446 1099.35 691.519C1101.23 692.594 1102.71 694.075 1103.77 695.962C1104.82 697.85 1105.35 699.965 1105.35 702.307V713.339C1105.35 715.682 1104.81 717.798 1103.74 719.685C1102.67 721.573 1101.19 723.053 1099.3 724.127C1097.41 725.201 1095.3 725.738 1092.95 725.738H1088.56C1086.22 725.738 1084.1 725.201 1082.21 724.127Z" fill="#FFFFFF"/>
<path d="M1112.06 695.279C1112.93 693.783 1114.14 692.619 1115.7 691.788C1117.26 690.959 1119.04 690.544 1121.02 690.544H1124.19V694.303H1121.02C1119.07 694.303 1117.55 694.864 1116.46 695.987C1115.37 697.109 1114.82 698.695 1114.82 700.745V701.673H1123.31V705.383H1114.82V725.103H1110.77V700.452C1110.77 698.5 1111.2 696.776 1112.06 695.279Z" fill="#FFFFFF"/>
<path d="M1131.22 694.01V700.258H1139.42V704.016H1131.22V715.291C1131.22 717.31 1131.82 718.815 1133 719.807C1134.19 720.799 1135.74 721.296 1137.67 721.296H1140.11V725.103H1137.08C1134.05 725.103 1131.64 724.282 1129.86 722.638C1128.07 720.995 1127.17 718.659 1127.17 715.634V694.01H1131.22Z" fill="#FFFFFF"/>
<path d="M1147.53 720.905C1148.47 721.718 1149.8 722.126 1151.53 722.126H1153.24C1155.09 722.126 1156.6 721.605 1157.78 720.563C1158.95 719.522 1159.53 718.058 1159.53 716.17V713.486H1151.53C1149.8 713.486 1148.47 713.885 1147.53 714.682C1146.58 715.479 1146.11 716.511 1146.11 717.781C1146.11 719.05 1146.58 720.091 1147.53 720.905ZM1144.38 723.565C1142.8 722.118 1142.01 720.222 1142.01 717.878C1142.01 715.503 1142.8 713.591 1144.38 712.143C1145.96 710.695 1148.14 709.971 1150.94 709.971H1159.53V708.603C1159.53 707.075 1159.04 705.822 1158.05 704.846C1157.05 703.87 1155.66 703.381 1153.87 703.381H1152.75C1151.15 703.381 1149.85 703.755 1148.84 704.503C1147.84 705.253 1147.2 706.245 1146.94 707.481H1142.84C1143.26 704.943 1144.35 703.007 1146.11 701.673C1147.87 700.339 1150.13 699.671 1152.9 699.671H1153.58C1156.86 699.671 1159.34 700.526 1161 702.234C1162.66 703.942 1163.49 706.343 1163.49 709.434V718.415C1163.49 719.555 1163.67 720.361 1164.02 720.831C1164.38 721.303 1164.97 721.539 1165.78 721.539H1167V725.103H1164.95C1163.78 725.103 1162.83 724.851 1162.1 724.346C1161.36 723.842 1160.84 723.15 1160.51 722.271C1159.83 723.411 1158.89 724.273 1157.7 724.859C1156.52 725.445 1155.17 725.738 1153.68 725.738H1150.94C1148.14 725.738 1145.96 725.014 1144.38 723.565Z" fill="#FFFFFF"/>
<path d="M1173.79 690.543V716.951C1173.79 719.815 1175.35 721.246 1178.47 721.246H1180.62V725.103H1177.64C1175.04 725.103 1173.07 724.429 1171.74 723.077C1170.4 721.727 1169.74 719.619 1169.74 716.755V690.543H1173.79Z" fill="#FFFFFF"/>
<path d="M1186.33 702.356C1188.02 700.568 1190.38 699.672 1193.41 699.672H1194.14C1196.13 699.672 1197.79 700.063 1199.14 700.843C1200.5 701.624 1201.51 702.667 1202.2 703.967C1202.88 702.667 1203.9 701.624 1205.25 700.843C1206.6 700.063 1208.25 699.672 1210.2 699.672H1210.98C1213.98 699.672 1216.33 700.568 1218.04 702.356C1219.74 704.147 1220.6 706.603 1220.6 709.727V725.103H1216.55V709.873C1216.55 708.019 1216.02 706.513 1214.96 705.359C1213.9 704.203 1212.5 703.625 1210.74 703.625H1210.01C1208.25 703.625 1206.84 704.203 1205.78 705.359C1204.73 706.513 1204.2 708.019 1204.2 709.873V725.103H1200.15V709.873C1200.15 707.987 1199.62 706.473 1198.58 705.335C1197.54 704.195 1196.14 703.625 1194.39 703.625H1193.6C1191.85 703.625 1190.45 704.195 1189.41 705.335C1188.36 706.473 1187.84 707.987 1187.84 709.873V725.103H1183.79V709.727C1183.79 706.603 1184.64 704.147 1186.33 702.356Z" fill="#FFFFFF"/>
<path d="M1230.51 720.075C1231.61 721.215 1233.14 721.784 1235.1 721.784H1236.56C1238.51 721.784 1240.04 721.215 1241.15 720.075C1242.25 718.936 1242.81 717.374 1242.81 715.39V709.971C1242.81 707.987 1242.25 706.424 1241.15 705.286C1240.04 704.146 1238.51 703.576 1236.56 703.576H1235.1C1233.14 703.576 1231.61 704.146 1230.51 705.286C1229.4 706.424 1228.85 707.987 1228.85 709.971V715.39C1228.85 717.374 1229.4 718.936 1230.51 720.075ZM1227.48 723.004C1225.66 721.183 1224.75 718.676 1224.75 715.487V709.922C1224.75 706.7 1225.66 704.187 1227.48 702.38C1229.3 700.575 1231.83 699.671 1235.05 699.671H1236.66C1239.88 699.671 1242.39 700.583 1244.2 702.406C1246.01 704.228 1246.91 706.734 1246.91 709.922V715.487C1246.91 718.676 1246.01 721.183 1244.2 723.004C1242.39 724.827 1239.88 725.738 1236.66 725.738H1235.05C1231.83 725.738 1229.3 724.827 1227.48 723.004Z" fill="#FFFFFF"/>
<path d="M1255.74 690.543V716.951C1255.74 719.815 1257.3 721.246 1260.43 721.246H1262.58V725.103H1259.6C1256.99 725.103 1255.03 724.429 1253.69 723.077C1252.36 721.727 1251.69 719.619 1251.69 716.755V690.543H1255.74Z" fill="#FFFFFF"/>
<path d="M1277.85 689.762H1282.59L1277.46 696.401H1272.97L1277.85 689.762ZM1269.9 720.074C1271 721.214 1272.53 721.784 1274.49 721.784H1275.95C1277.9 721.784 1279.43 721.214 1280.54 720.074C1281.64 718.937 1282.2 717.374 1282.2 715.389V709.972C1282.2 707.986 1281.64 706.425 1280.54 705.285C1279.43 704.146 1277.9 703.577 1275.95 703.577H1274.49C1272.53 703.577 1271 704.146 1269.9 705.285C1268.79 706.425 1268.24 707.986 1268.24 709.972V715.389C1268.24 717.374 1268.79 718.937 1269.9 720.074ZM1266.87 723.004C1265.05 721.182 1264.14 718.676 1264.14 715.486V709.922C1264.14 706.7 1265.05 704.188 1266.87 702.381C1268.69 700.574 1271.22 699.672 1274.44 699.672H1276.05C1279.27 699.672 1281.78 700.584 1283.59 702.405C1285.4 704.228 1286.3 706.733 1286.3 709.922V715.486C1286.3 718.676 1285.4 721.182 1283.59 723.004C1281.78 724.826 1279.27 725.737 1276.05 725.737H1274.44C1271.22 725.737 1268.69 724.826 1266.87 723.004Z" fill="#FFFFFF"/>
<path d="M1295.3 712.192C1296.33 713.12 1297.83 713.583 1299.82 713.583H1302.06C1304.05 713.583 1305.55 713.112 1306.58 712.168C1307.61 711.224 1308.12 709.988 1308.12 708.457C1308.12 706.929 1307.6 705.7 1306.55 704.773C1305.51 703.845 1304.02 703.381 1302.06 703.381H1299.82C1297.83 703.381 1296.33 703.845 1295.3 704.773C1294.28 705.7 1293.77 706.929 1293.77 708.457C1293.77 710.02 1294.28 711.265 1295.3 712.192ZM1291.23 733.719C1289.8 732.401 1289.08 730.7 1289.08 728.617V727.691H1293.13V728.423C1293.13 729.431 1293.51 730.277 1294.28 730.96C1295.04 731.644 1296.01 731.985 1297.18 731.985H1304.75C1305.99 731.985 1306.98 731.66 1307.73 731.009C1308.47 730.359 1308.85 729.512 1308.85 728.471C1308.85 727.429 1308.47 726.584 1307.73 725.933C1306.98 725.281 1305.99 724.957 1304.75 724.957H1295.18C1293.85 724.957 1292.77 724.565 1291.94 723.785C1291.11 723.004 1290.69 722.061 1290.69 720.955C1290.69 719.751 1291.16 718.676 1292.11 717.732L1293.82 716.024C1291.08 714.56 1289.72 712.055 1289.72 708.507C1289.72 705.741 1290.58 703.577 1292.3 702.015C1294.03 700.452 1296.53 699.672 1299.82 699.672H1302.02C1304.72 699.672 1306.9 700.209 1308.56 701.283L1311.63 698.305L1314.07 700.844L1311.05 703.82C1311.79 705.123 1312.17 706.684 1312.17 708.507C1312.17 711.273 1311.31 713.429 1309.58 714.975C1307.86 716.52 1305.33 717.293 1302.02 717.293H1299.82C1299.04 717.293 1298.27 717.244 1297.53 717.147L1295.82 718.807C1295.43 719.197 1295.23 719.604 1295.23 720.027C1295.23 720.385 1295.36 720.669 1295.62 720.881C1295.88 721.093 1296.26 721.197 1296.74 721.197H1305.33C1307.55 721.197 1309.36 721.881 1310.78 723.248C1312.19 724.615 1312.9 726.356 1312.9 728.471C1312.9 730.587 1312.19 732.319 1310.78 733.669C1309.36 735.02 1307.55 735.696 1305.33 735.696H1296.7C1294.48 735.696 1292.66 735.036 1291.23 733.719Z" fill="#FFFFFF"/>
<path d="M1316.61 700.257H1320.66V725.103H1316.61V700.257ZM1316.56 691.423H1320.66V696.597H1316.56V691.423Z" fill="#FFFFFF"/>
<path d="M1328.06 723.004C1326.25 721.183 1325.35 718.676 1325.35 715.487V709.923C1325.35 706.733 1326.25 704.228 1328.06 702.405C1329.86 700.584 1332.38 699.672 1335.6 699.672H1337.01C1340.07 699.672 1342.5 700.495 1344.29 702.136C1346.08 703.78 1347.05 706.083 1347.22 709.044H1343.12C1342.95 707.352 1342.33 706.017 1341.26 705.041C1340.19 704.065 1338.75 703.577 1336.97 703.577H1335.65C1333.73 703.577 1332.21 704.147 1331.11 705.285C1330 706.424 1329.45 707.987 1329.45 709.972V715.389C1329.45 717.375 1330 718.937 1331.11 720.075C1332.21 721.215 1333.73 721.784 1335.65 721.784H1336.97C1338.75 721.784 1340.19 721.296 1341.29 720.32C1342.37 719.343 1342.99 717.993 1343.12 716.268H1347.22C1347.05 719.229 1346.08 721.548 1344.29 723.224C1342.5 724.9 1340.07 725.737 1337.01 725.737H1335.6C1332.38 725.737 1329.86 724.827 1328.06 723.004Z" fill="#FFFFFF"/>
<path d="M1356.73 720.075C1357.84 721.215 1359.37 721.784 1361.32 721.784H1362.79C1364.74 721.784 1366.27 721.215 1367.38 720.075C1368.48 718.936 1369.04 717.374 1369.04 715.39V709.971C1369.04 707.987 1368.48 706.424 1367.38 705.286C1366.27 704.146 1364.74 703.576 1362.79 703.576H1361.32C1359.37 703.576 1357.84 704.146 1356.73 705.286C1355.63 706.424 1355.07 707.987 1355.07 709.971V715.39C1355.07 717.374 1355.63 718.936 1356.73 720.075ZM1353.71 723.004C1351.88 721.183 1350.97 718.676 1350.97 715.487V709.922C1350.97 706.7 1351.88 704.187 1353.71 702.38C1355.53 700.575 1358.05 699.671 1361.27 699.671H1362.88C1366.11 699.671 1368.62 700.583 1370.43 702.406C1372.23 704.228 1373.14 706.734 1373.14 709.922V715.487C1373.14 718.676 1372.23 721.183 1370.43 723.004C1368.62 724.827 1366.11 725.738 1362.88 725.738H1361.27C1358.05 725.738 1355.53 724.827 1353.71 723.004Z" fill="#FFFFFF"/>
<path d="M1081.19 778.65C1082.29 779.79 1083.83 780.359 1085.78 780.359H1087.34C1089.32 780.359 1090.86 779.798 1091.95 778.675C1093.04 777.553 1093.59 775.982 1093.59 773.965V768.546C1093.59 766.562 1093.03 764.999 1091.93 763.861C1090.82 762.721 1089.29 762.151 1087.34 762.151H1085.78C1083.83 762.151 1082.29 762.721 1081.19 763.861C1080.08 764.999 1079.53 766.562 1079.53 768.546V773.965C1079.53 775.95 1080.08 777.511 1081.19 778.65ZM1078.16 781.579C1076.34 779.758 1075.43 777.251 1075.43 774.062V768.497C1075.43 765.309 1076.31 762.803 1078.07 760.981C1079.82 759.158 1082.18 758.246 1085.14 758.246H1087.39C1090.09 758.246 1092.17 759.077 1093.64 760.737L1093.59 759.369V749.118H1097.64V774.062C1097.64 777.283 1096.75 779.798 1094.98 781.603C1093.21 783.41 1090.67 784.313 1087.39 784.313H1085.73C1082.51 784.313 1079.99 783.402 1078.16 781.579Z" fill="#FFFFFF"/>
<path d="M1120.19 769.571V768.351C1120.19 766.365 1119.64 764.804 1118.53 763.664C1117.42 762.525 1115.89 761.956 1113.94 761.956H1112.43C1110.48 761.956 1108.95 762.525 1107.84 763.664C1106.73 764.804 1106.18 766.365 1106.18 768.351V769.571H1120.19ZM1104.86 781.579C1103.04 779.757 1102.13 777.251 1102.13 774.061V768.497C1102.13 765.275 1103.04 762.761 1104.86 760.956C1106.69 759.149 1109.21 758.247 1112.43 758.247H1113.94C1117.16 758.247 1119.68 759.149 1121.48 760.956C1123.29 762.761 1124.19 765.275 1124.19 768.497V773.183H1106.18V774.111C1106.18 776.096 1106.73 777.649 1107.84 778.772C1108.95 779.895 1110.48 780.456 1112.43 780.456H1113.94C1115.44 780.456 1116.69 780.115 1117.7 779.432C1118.71 778.748 1119.41 777.837 1119.8 776.697H1124C1123.54 779.107 1122.44 780.977 1120.68 782.312C1118.92 783.645 1116.68 784.312 1113.94 784.312H1112.43C1109.21 784.312 1106.69 783.401 1104.86 781.579Z" fill="#FFFFFF"/>
<path d="M1141.28 749.118H1145.48L1162.51 773.476L1164.71 776.99L1164.56 771.182V749.118H1168.71V783.678H1164.56L1147.53 759.321L1145.28 755.806L1145.43 761.565V783.678H1141.28V749.118Z" fill="#FFFFFF"/>
<path d="M1179.45 779.48C1180.39 780.293 1181.73 780.701 1183.45 780.701H1185.16C1187.02 780.701 1188.53 780.18 1189.7 779.139C1190.87 778.097 1191.46 776.633 1191.46 774.745V772.061H1183.45C1181.73 772.061 1180.39 772.46 1179.45 773.257C1178.5 774.055 1178.03 775.087 1178.03 776.356C1178.03 777.625 1178.5 778.667 1179.45 779.48ZM1176.3 782.14C1174.72 780.693 1173.93 778.797 1173.93 776.453C1173.93 774.079 1174.72 772.167 1176.3 770.719C1177.88 769.271 1180.07 768.547 1182.87 768.547H1191.46V767.179C1191.46 765.651 1190.96 764.397 1189.97 763.421C1188.98 762.444 1187.58 761.956 1185.8 761.956H1184.67C1183.08 761.956 1181.78 762.331 1180.77 763.079C1179.76 763.828 1179.12 764.82 1178.86 766.056H1174.76C1175.19 763.519 1176.28 761.583 1178.03 760.248C1179.79 758.915 1182.05 758.247 1184.82 758.247H1185.5C1188.79 758.247 1191.26 759.1 1192.92 760.809C1194.58 762.517 1195.41 764.919 1195.41 768.009V776.991C1195.41 778.131 1195.59 778.936 1195.95 779.407C1196.31 779.879 1196.89 780.115 1197.7 780.115H1198.92V783.679H1196.88C1195.7 783.679 1194.75 783.427 1194.02 782.921C1193.29 782.417 1192.76 781.725 1192.43 780.847C1191.75 781.987 1190.81 782.848 1189.63 783.435C1188.44 784.02 1187.1 784.312 1185.6 784.312H1182.87C1180.07 784.312 1177.88 783.589 1176.3 782.14Z" fill="#FFFFFF"/>
<path d="M1197.56 758.833H1201.95L1207.61 772.939L1209.81 778.65L1211.96 772.939L1217.62 758.833H1222.01L1211.91 783.678H1207.71L1197.56 758.833Z" fill="#FFFFFF"/>
<path d="M1224.84 758.832H1228.9V783.677H1224.84V758.832ZM1224.8 749.997H1228.9V755.172H1224.8V749.997Z" fill="#FFFFFF"/>
<path d="M1248.03 762.737H1244.47C1242.65 762.737 1241.15 763.348 1239.98 764.568C1238.81 765.788 1238.22 767.343 1238.22 769.229V783.679H1234.17V768.791C1234.17 765.699 1235.08 763.267 1236.9 761.492C1238.72 759.72 1241.21 758.833 1244.37 758.833H1248.03V762.737Z" fill="#FFFFFF"/>
<path d="M1254.52 779.48C1255.47 780.293 1256.8 780.701 1258.53 780.701H1260.23C1262.09 780.701 1263.6 780.18 1264.77 779.139C1265.94 778.097 1266.53 776.633 1266.53 774.745V772.061H1258.53C1256.8 772.061 1255.47 772.46 1254.52 773.257C1253.58 774.055 1253.11 775.087 1253.11 776.356C1253.11 777.625 1253.58 778.667 1254.52 779.48ZM1251.37 782.14C1249.8 780.693 1249.01 778.797 1249.01 776.453C1249.01 774.079 1249.8 772.167 1251.37 770.719C1252.95 769.271 1255.14 768.547 1257.94 768.547H1266.53V767.179C1266.53 765.651 1266.03 764.397 1265.04 763.421C1264.05 762.444 1262.66 761.956 1260.87 761.956H1259.75C1258.15 761.956 1256.85 762.331 1255.84 763.079C1254.83 763.828 1254.2 764.82 1253.94 766.056H1249.84C1250.26 763.519 1251.35 761.583 1253.11 760.248C1254.86 758.915 1257.13 758.247 1259.89 758.247H1260.57C1263.86 758.247 1266.33 759.1 1267.99 760.809C1269.65 762.517 1270.48 764.919 1270.48 768.009V776.991C1270.48 778.131 1270.66 778.936 1271.02 779.407C1271.38 779.879 1271.97 780.115 1272.78 780.115H1274V783.679H1271.95C1270.78 783.679 1269.83 783.427 1269.09 782.921C1268.36 782.417 1267.83 781.725 1267.51 780.847C1266.82 781.987 1265.89 782.848 1264.7 783.435C1263.51 784.02 1262.17 784.312 1260.67 784.312H1257.94C1255.14 784.312 1252.95 783.589 1251.37 782.14Z" fill="#FFFFFF"/>
<path d="M1277.22 758.832H1281.27V783.677H1277.22V758.832ZM1280.78 748.728H1285.23L1281.13 755.319H1276.98L1280.78 748.728Z" fill="#FFFFFF"/>
<path d="M652.388 768.554C659.698 775.97 669.952 779.679 683.14 779.679H704.156C717.34 779.679 727.644 775.97 735.061 768.554C742.48 761.135 746.188 750.835 746.188 737.647V678.307C746.188 665.123 742.48 654.77 735.061 647.246C727.644 639.727 717.34 635.966 704.156 635.966H683.14C669.952 635.966 659.698 639.674 652.388 647.093C645.072 654.509 641.416 664.915 641.416 678.307V737.647C641.416 750.835 645.072 761.135 652.388 768.554ZM637.398 811.977C624.621 804.666 614.629 794.669 607.418 781.998C600.204 769.327 596.601 755.163 596.601 739.502V676.453C596.601 660.589 600.204 646.319 607.418 633.647C614.629 620.977 624.621 610.985 637.398 603.669C650.172 596.357 664.489 592.697 680.357 592.697H706.937C723.008 592.697 737.429 596.357 750.205 603.669C762.978 610.985 772.97 620.977 780.185 633.647C787.394 646.319 791.002 660.589 791.002 676.453V739.502C791.002 755.163 787.341 769.327 780.03 781.998C772.714 794.669 762.67 804.666 749.897 811.977C737.118 819.289 722.8 822.949 706.937 822.949H680.357C664.489 822.949 650.172 819.289 637.398 811.977Z" fill="#FFFFFF"/>
<path d="M230.959 722.358C234.281 711.955 233.483 701.228 229.491 691.923C226.748 698.447 219.428 701.912 212.557 699.718C205.288 697.396 201.277 689.622 203.599 682.352C205.168 677.44 209.227 674.02 213.936 673.032C210.549 670.732 206.787 668.866 202.688 667.556C179.749 660.231 155.215 672.888 147.888 695.827C140.561 718.767 153.219 743.302 176.157 750.628C199.097 757.954 223.632 745.298 230.959 722.358Z" fill="#FFFFFF"/>
<path d="M159.065 802.641C114.141 788.294 86.4959 745.036 90.1025 699.968C96.2399 718.337 141.048 836.61 260.171 777.788C234.673 803.557 195.965 814.426 159.065 802.641ZM90.8265 693.59C90.8265 693.59 219.732 598.818 288.511 716.606C288.348 718.421 288.133 720.238 287.868 722.056C287.868 722.056 158.963 816.828 90.1839 699.04C90.3465 697.225 90.5612 695.409 90.8265 693.59ZM219.629 613.005C264.553 627.353 292.199 670.612 288.592 715.68C282.455 697.31 237.648 579.037 118.524 637.858C144.021 612.089 182.728 601.221 219.629 613.005ZM226.6 591.178C162.179 570.605 93.2772 606.149 72.7025 670.57C52.1279 734.992 87.6732 803.894 152.095 824.468C216.516 845.042 285.417 809.497 305.992 745.076C326.567 680.654 291.021 611.753 226.6 591.178Z" fill="#FFFFFF"/>
</g>
</g>
<defs>
<clipPath id="clip0_6_2">
<rect width="1440" height="1440" fill="white"/>
</clipPath>
</defs>
</svg>
